<svg id="Layer_1" data-name="Layer 1" xmlns="http://www.w3.org/2000/svg" viewBox="0 0 658.8 878.4"><defs><style>.cls-1{fill:#1d1d1b;}.cls-2{fill:#a5d3f3;}.cls-3{fill:#512aac;}.cls-4{fill:#cce9f6;}.cls-5{fill:#fafafa;}.cls-6{fill:#3a3a39;}.cls-7{fill:#fdd600;}.cls-8{fill:#ed012f;}.cls-9{fill:#141414;}.cls-10{fill:#c8e6e4;}.cls-11{fill:#cbe6e2;}.cls-12{font-size:90.57px;fill:#f2e500;font-family:ShowcardGothic-Reg, Showcard Gothic;}</style></defs><path class="cls-1" d="M.1,439.2Q.1,222.12,0,5C0,.93.93,0,5,0Q329.4.18,653.76,0c4.11,0,5,.93,5,5q-.16,434.16,0,868.32c0,4.11-.93,5-5,5Q329.4,878.22,5,878.4c-4.11,0-5-.93-5-5Q.18,656.28.1,439.2ZM402,829c2.55,2.53,13.6,5.08,15.83,3,2.51-2.39.62-6.14,1-9.26a25.46,25.46,0,0,0,0-3.27c0-4.52-2.45-6.68-6.77-6.74-2.76,0-7.27-.41-7.29,2.35,0,4.12,3.89.78,6,1.25,1.47.32,3,.39,3.18,2.3.24,2.08-1.42,1.77-2.55,1.8-5.71.14-8.85,3-9.38,8.66H391.93a62.06,62.06,0,0,0,3.79-5.6c1.66-3.26,6.94-6.28,4.33-9.61-2.05-2.61-7.54-.57-11.5-.8-1.26-.08-2.08.37-2.05,1.83s.82,1.83,2.1,1.81c1.87,0,3.74,0,6.47,0-2.82,4-4.92,6.92-7,9.88-1,1.47-2.88,3-1.87,4.82s3.35.95,5,.78C394.94,831.73,399.66,834.28,402,829ZM271.54,758.8c18.71,1.92,37.26.35,55.75-2.53,1.27.7,2.54,2,3.82,2,11.46.18,22.94.36,34.39,0,2.86-.08,4.32-2.56,2.37-5.62-.78-1.22-1.51-2.48-2.26-3.72a335.3,335.3,0,0,0,39.71-12.33c39.77-15.15,75.82-36.13,104.83-67.86,28.15-30.78,44.94-66.64,45-108.8.13-57.71-23.84-105.39-64.14-145.35-36.37-36.07-80.27-59.21-129.44-72.68-33.53-9.19-67.53-12.47-102-6.53-51.17,8.82-88.8,37.34-115.8,80.79-20.49,33-31.75,69.21-36.74,107.48-5.19,40-3.68,79.55,8.3,118.31,21.72,70.3,72.69,109.9,142.89,116.17C262.67,758.52,267,760.85,271.54,758.8ZM535,118.74c-2.92.3-3.9-3.06-6.47-3.42.42-3.7-1-5.57-5-5.29a28.35,28.35,0,0,1-4.2-.3c-.38-2.12-2.29-2.83-3.77-3.72a185.25,185.25,0,0,0-25.49-12.62c-22.39-9.07-46-13.92-69.15-20.53-21-6-42.54-9.8-64.28-12.45-28-3.42-56.05-5.54-84.37-4.47-20.61.78-41.06,2.22-61.4,5.62C171.46,68.15,133.66,79,100.77,102.9a8.67,8.67,0,0,1-6.25,1.51l0,0c-.22-1.06-.44-2.53-1.91-1.63-1.09.67-3.16,1.94-2,3.32,3.34,4-.51,5.47-2.38,7.44-8,8.37-14.78,17.47-18.93,28.38-3.75,9.87-4.68,20.11-4.39,30.55-3.25,1.17-6.57,2.16-9.72,3.54-9.76,4.26-14.9,13.09-14.24,24.12C41.72,213.77,48.42,224,58.62,227c11.68,3.41,22.63,1.9,32.71-5.11,1.37,1.19,2.84,2.27,4.09,3.58,20.14,21,44.81,35,71,46.9-.13,3.62-.25,7.23-.39,10.84-.35,9.45-.35,9.45,8.83,9.45,9.56,0,9.56,0,10.08-9.29,2.07-.33,3.92.53,5.86,1,6.17,1.54,12.35,3,18.53,4.47.1,2.29.94,3.39,3.57,3.34,4.46-.09,8.92.32,13.38.52.94,2.24,3.08,2.22,5,2.72a579.1,579.1,0,0,0,68,13.38c23.16,3.21,46.44,3.71,69.68,5.14,7.5.46,14.87-1.75,22.38-1.07,7.88.71,15.71-.58,23.46-1.33,24.11-2.35,48-6.35,71.31-13.15,23.59-6.9,46.24-16.06,66.31-30.64,14.22-10.33,26.5-22.32,32.79-39.29,9.13-.19,18.26-.46,27.4-.52,2.61,0,3.84-.46,4-3.55.55-12.39.68-12.38-11.59-12.26a6,6,0,0,1-1.64,0c-2.37-.68-6.8,2.86-6.87-1.89-.07-4.12,4.54-1.77,7-2.41,1.71-.45,5,0,5.13-.57.93-3.83,1.94-7.91,1.47-11.72-.31-2.47-3.79-.25-5.67-1-2.38-.93-6.85,2.41-7.07-2.07-.23-4.72,4.39-2.26,6.64-2.32,10.77-.31,10.54-.16,11.68-11,.45-4.27-1.09-4.86-4.71-4.77-9.68.22-19.36.15-29,.19.07-2.26-1-4.16-2.08-6-2.58-4.27-5.25-8.49-7.88-12.72,2.8-3.71-1.45-4.26-2.72-6.18-.87-1.32-4.27-1.52-1.77-4.43,5.14-6,5.66-13.19,4.71-20.62-1.06-8.21-6.18-13.41-14.44-14.79a58.27,58.27,0,0,0-13.07-.21C535.58,110.17,535.57,110.07,535,118.74ZM435,817.42c-1.15-2.54-1.75-6.23-5-3.76-2.73,2.07-4.41-2-6.57-.44-.54.4-.66,1.6-.67,2.43-.06,4.57,0,9.13,0,13.69,0,1.39-.39,2.86,2,2.92s2.52-1.16,2.58-3c.09-3.07-.52-6.17.54-9.22s3.86-3.44,6.24-3.15c2.74.33.69,2.63.67,4-.06,4.17.23,8.2,4,10.74,4.28,2.88,8.95-.9,13.48.35,1.11.31,1-1.63,1-2.65,0-6.21,0-12.41,0-18.61,0-1.6-.08-2.94-2.29-2.7-1.51.17-3,.08-2.84,2.29a32.14,32.14,0,0,1-.22,3.61C442.68,811.38,438.56,812.79,435,817.42Zm34.9-23.15c-.12-1.86-1.69-4.18-4.18-5.95-4.82-3.43-13.17-3.48-18-.13-5.88,4.06-5.42,10.29,0,15,3.31,2.87,9.66-.87,10.73,5.58l1-.27C464.08,807.08,469.92,799.94,469.89,794.27ZM224.21,818.12h.2c0,3.28-.2,6.58.07,9.84.16,2,1.29,3.95,3.63,4.22,1.89.21,5,1.19,5.53-.61,1.47-4.64,2.85-1.68,4.69-.56,4.13,2.52,8.37,2.49,12.11-.74,3.17-2.73,3.63-10,1.17-13.78a9.41,9.41,0,0,0-11.67-3.07c-5.76,2.59-5.77,7.69-4.74,12.61.8,3.85-1,3.09-3.28,2.88-2.94-.28-2.86-2.47-2.92-4.41-.12-4.37,0-8.76-.05-13.14,0-1.47.66-3.37-2.14-3.41s-2.63,1.74-2.6,3.6C224.24,813.74,224.21,815.93,224.21,818.12ZM361.52,820l1.06.25c.84,2.94,1.74,5.87,2.51,8.83.48,1.86.93,3.24,3.47,3.2,2.29,0,2.69-1.38,3.18-2.92,1.31-4.18,2.65-8.34,3.8-12.56.34-1.23,2.49-3.13-.64-3.77-2.18-.45-3.32.62-3.81,2.83-.64,2.89-1.6,5.72-2.87,10.13-1.26-4.55-2.05-7.51-2.91-10.45-.42-1.44-.95-2.69-2.92-2.63s-2.9.59-3.51,2.59c-.89,2.92-1,6.2-3.49,9.26-1-3.64-2-6.55-2.59-9.54-.46-2.26-1.87-2.5-3.6-2.23-2.6.42-1.2,2.31-.9,3.41,1.21,4.39,2.79,8.68,3.95,13.07.51,1.9,1.19,2.68,3.25,2.79,2.28.11,2.77-1.25,3.25-2.85C359.69,826.3,360.6,823.16,361.52,820Zm-20.77,11.72c-.8,4.33-.79,4.33-6.32,5-1.16.15-2.68-.43-2.7,1.68s1.2,2.22,2.83,2.38c7.2.67,11.08-2.68,11.28-10,.08-2.92.07-5.85,0-8.77s.49-6.12-.6-8.6c-.92-2.1-3.5,1.21-5.47.28a10.62,10.62,0,0,0-1.5-.68c-5-1.5-9.6,1.19-10.84,6.34C325.33,828.24,330.58,833.1,340.75,831.74Zm-72-.63c-.54,5-.54,5-6,5.65-1.22.14-2.73-.3-3,1.52a2.06,2.06,0,0,0,1.49,2.49c5.11,1.83,11.94-2.15,12.2-7.5.29-5.81,0-11.65.15-17.47,0-2.07-.82-3.54-2.77-2.62-2.15,1-3.66,0-5.52-.37-4.27-.8-7.58,1-9.29,4.92s-1.52,8.25,1.48,11.78C260.66,833.19,264.69,832.64,268.77,831.11Zm21-.21c.43,5.34-2.83,5.89-6.56,5.87-1.37,0-2.68.06-2.55,1.92a2.11,2.11,0,0,0,1.39,2.07c4.93,2,11.95-2.15,12.3-7.48.26-3.82.15-7.67.07-11.5-.1-4.28,2-10.39-6.43-8.34-.43.11-1-.49-1.5-.59-4.57-.84-7.95.88-9.68,5.14s-1.35,8.33,1.79,11.76S285.6,832.71,289.78,830.9ZM207.91,814c-.07-1-.1-1.73-.18-2.43-.18-1.6.85-3.78-2.42-3.62-3.1.16-2.26,2.23-2.29,3.85-.08,4-.21,8.05,0,12.06.22,3.79-2.65,10.33,6,7.66.52-.16,1.29.6,2,.78,4.7,1.25,8-.62,9.44-5,1.37-4.1,1.35-8.39-1.48-12C216,811.31,211.91,812.6,207.91,814Zm99.37,8.73c0,2.18.07,4.37,0,6.56-.08,1.9.22,3.07,2.6,3s2-1.6,2-3c0-2.73,0-5.47,0-8.2a4.28,4.28,0,0,1,4.42-4.57c3.1-.16,3.32,2.29,3.4,4.52.1,2.91.11,5.83,0,8.74-.06,1.93.73,2.54,2.57,2.49,1.67,0,2.23-.76,2.2-2.32,0-2.91,0-5.83,0-8.74-.13-7.56-3.32-9.88-10.39-7.63-.82.26-2,1-2.45.65-5.34-3.37-4.17.92-4.31,3.6C307.21,819.43,307.28,821.07,307.28,822.71Zm71.34-.43c0,2.54,0,5.07,0,7.6,0,1.48.34,2.31,2.08,2.35s2.55-.55,2.52-2.45c-.1-4.88-.07-9.77,0-14.65,0-1.67-.75-2.14-2.31-2.13s-2.3.62-2.26,2.23C378.67,817.58,378.63,819.93,378.62,822.28Zm-75.57.56c0-2.35,0-4.7,0-7.05,0-1.53,0-2.83-2.17-2.81-2,0-2.42,1-2.4,2.67,0,4.7.08,9.4,0,14.1,0,1.89.66,2.51,2.52,2.48s2.1-.86,2.07-2.33C303,827.55,303.05,825.2,303.05,822.84Zm80.28-14.45c.24-1.53-.63-2-2.21-2-1.41,0-2.47.12-2.53,2s.69,2.22,2.28,2.12C382.17,810.36,383.55,810.57,383.33,808.39Zm165.1-430.26c-1-.93-1.91-2.37-2.82-2.38s-1.75,1.46-2.62,2.28c.8.85,1.6,2.34,2.42,2.36S547.26,379.07,548.43,378.13ZM94.93,624.58c1.76-.26,2.34-1.59,2.4-3.09a1.91,1.91,0,0,0-2-2,2.57,2.57,0,1,0-.35,5.13ZM467.22,866.35c-.22-2.07,2.14-1.8,1.73-3.2-.3-1-1.23-2.61-2.53-2.26a3.68,3.68,0,0,0-2.24,2.61C464.13,864.19,465.73,865,467.22,866.35Zm-164.16-58c.15-1.52-.81-2-2.34-1.92-1.36.09-3-.48-3.17,1.87-.12,1.91,1,2.13,2.35,1.94C301.12,810,303.07,811.07,303.06,808.31Zm267.09-467c-1,1-2.47,1.94-2.45,2.81a3.43,3.43,0,0,0,2.46,2.34,3.32,3.32,0,0,0,2.43-2.28C572.6,343.32,571.15,342.43,570.15,341.33ZM406,59.91c-1.1-1-1.92-2.39-2.94-2.55-1.33-.21-2,1.48-2.35,2.56-.13.46,1.45,2,2.16,1.95C403.85,61.79,404.79,60.7,406,59.91ZM82.78,75.11c-1.11-.91-2.07-2.3-3-2.27s-1.72,1.52-2.58,2.37c.87.8,1.75,2.26,2.6,2.24S81.65,76.07,82.78,75.11ZM257,43.57a3.71,3.71,0,0,0-2.52-2.72c-1.29-.2-2.31,1.23-2.56,2.27-.31,1.34,1.44,1.78,2.15,2.73ZM80.69,736.79c-.87,1.11-2.25,2.09-2.23,3.05s1.43,1.91,2.23,2.87c.89-1.05,2.7-1.72,2.47-3.19C83,738.54,81.61,737.75,80.69,736.79Zm498.23,116.9c-1,1.23-2.42,2.22-2.36,3.1a3.49,3.49,0,0,0,2.55,2.27c.71.06,2.18-1.56,2.17-2.43S579.91,854.84,578.92,853.69Zm-305.37-835c-1.47-1.69-2-3.16-3.47-2.9-1.23.22-2.44,1.29-2.1,2.61.26,1,1,2.59,2.59,2.18A11.27,11.27,0,0,0,273.55,18.64ZM96,414.08l3.84-2.87c-1.15-.67-1.62-2.67-3.14-2.29a3.45,3.45,0,0,0-2.17,2.49C94.46,412.46,95.61,413.52,96,414.08Zm93.88,386.18c-.59.77-1.71,1.56-1.73,2.39a2.61,2.61,0,0,0,2.33,2.45c.82-.05,2.12-1.6,2.17-2.54S191.33,800.65,189.83,800.26Z"/><path class="cls-2" d="M258.25,758.15c-70.2-6.27-121.17-45.87-142.89-116.17-12-38.76-13.49-78.35-8.3-118.31,5-38.27,16.25-74.51,36.74-107.48,27-43.45,64.63-72,115.8-80.79,34.48-5.94,68.48-2.66,102,6.53,49.17,13.47,93.07,36.61,129.44,72.68,40.3,40,64.27,87.64,64.14,145.35-.1,42.16-16.89,78-45,108.8-29,31.73-65.06,52.71-104.83,67.86A335.3,335.3,0,0,1,365.61,749a34.23,34.23,0,0,0-19.13-9.2c1.39-2.44,3.56-3.5,3.72-6.21.51-8.74,1.46-17.46,2.26-26.18,1.52-16.56,1.44-33.19,1.93-49.78,1.79-.34,3.57-.75,5.37-1,20.57-2.93,41.14-5.9,61.74-8.68,3.53-.48,4.76-1.92,4.27-5.37-2.61-18.42-5.14-36.84-7.73-55.26-.38-2.75-1.64-4.06-4.85-3.49-5.55,1-11.2,1.48-16.8,2.18-.29-2.42-1.48-3.7-4.06-3.24-1.94-3.9-5.75-5.57-9.15-7.73a11.57,11.57,0,0,0-6.14-9.12c-3.49-2-4.55-4.7-4-8.14.46-2.92-.58-5.25-1.63-7.75-4.82-11.54-10.24-22.82-14.21-34.7l31.32-7.51c13.17-3.16,13.09-3.14,9.22-16.34-.91-3.07-2.16-4.26-5.45-3.31a32.07,32.07,0,0,1-10.16,1.74c3-2,4.45-5.58,7.86-7.28,5.88-2.93,7-7.38,3.93-13.51-3.35-6.64-9-9.31-14.53-6.71-4.11,1.92-8.11,4.09-12.16,6.15l-.78-1.09c5.3-3.14,7.69-9.27,12.87-12.55a4.53,4.53,0,0,0,2.16-3.67c.14-5.61-2.62-9.78-7.16-12.76-3.89-2.56-7.79-2.56-11.65.46-4.89,3.83-10,7.39-14.92,11.17-2.4,1.85-3.5,1.23-3.86-1.58s-.82-5.42-1.06-8.15a9.44,9.44,0,0,0-6.71-8.53c-6-2.14-12.15-4-18.69-3.5l-4.95-.11a49.1,49.1,0,0,1-19.74-6.31c-.28,2.76-.5,4.9-.72,7l-6.23.81A54.12,54.12,0,0,0,264,436a12.68,12.68,0,0,0-5.92,6.15c-7.78,16.64-15.79,33.18-23.35,49.92-5.34,11.81,1,23.42,13.67,26.29,1.82.41,4.07,0,5.37,2-3.5,1-7,2-10.5,2.89-10.12,2.49-10.13,2.46-8.32,12.82.12.71.1,1.45.15,2.18-.73,3.47,1,6.43,2,9.51,3.35,10.24,9.73,12.76,19.22,7.74,8.1-4.29,16.22-8.55,24.95-13.15-.53,7.54-.75,14.1-1.55,20.6-.48,3.9.5,6,4.55,6.27,4.42,61.85-12.44,120.46-27.49,179.33C255.85,752.11,255.28,755.33,258.25,758.15Zm80.86-382.47H295.6c-1.55-.86-3.19-.57-4.83-.4,5-1,10-1.89,15-3.2,10.78-2.87,21.54-5.49,32.84-3.26,3.4.67,3.85-.92,3.19-4.13-2.09-10.1-11.06-15.4-15.91-23.54a.84.84,0,0,0-1.4.27c1,2.26,2.05,4.55,3,6.87.48,1.14,1.51,2.69.12,3.45-1.65.91-2.69-.77-3.32-2a28.68,28.68,0,0,0-8.72-10.39c-5-3.63-10.68-4.23-14.82-1.59a90.92,90.92,0,0,1,7.61,5.27,58.39,58.39,0,0,1,6.44,6.71c.72.85,2,2.14.66,3.34s-2.45.19-3.33-.76a41.53,41.53,0,0,0-9.51-7.35c-7.51-4.5-13.27-4.39-18.7.26-10.79,9.24-14.23,26.11-7.93,38.94-1.95,5.51.86,9.56,4.13,13.47,3.75,4.33,6.87,9.25,11.65,12.62,2.44,8.52,9.72,10.86,16.94,12.95,11.24,3.26,20.72.41,27.07-7.95,4.56-6,6.87-12.75,5.84-20.4,2.52-3.75,1.71-7.16-1.07-10.36C341.59,381.3,343.33,378,339.11,375.68Z"/><path class="cls-3" d="M258.25,758.15c-3-2.82-2.4-6-1.49-9.6,15.05-58.87,31.91-117.48,27.5-179.33,6.54-.5,13.08-1.16,19.63-1.46,7.54-.35,13.1-3.19,15.06-11.35,4.51,8.92,6.36,9.92,16.17,9.3,2.36-.15,4.74-.07,7.11-.09l5.94,27.21c1.08,8.32,2.13,16.64,3.27,24.95,1.81,13.2,1.78,26.54,2.95,39.8-.49,16.59-.41,33.22-1.93,49.78-.8,8.72-1.75,17.44-2.26,26.18-.16,2.71-2.33,3.77-3.72,6.21a34.23,34.23,0,0,1,19.13,9.2c.75,1.24,1.48,2.5,2.26,3.72,1.95,3.06.49,5.54-2.37,5.62-11.45.34-22.93.16-34.39,0-1.28,0-2.55-1.3-3.82-2-1.78-3.81-.39-7.26,1.74-10.25,1.51-2.13,2.66-5.44,1.62-6.43-2.69-2.58-1.32-5.2-1.15-7.66.61-8.93,1.61-17.83,2.39-26.75,3.59-41.4,1.58-82.49-7.18-123.17-1.77-8.25-1.81-8.25-10.41-7.66a20.26,20.26,0,0,1-4.36.3c-4.37-.69-5,1.38-4.92,5.23,1.7,52.87-8.5,103.88-24.23,154-.41,1.29-.26,3.07-1.9,3.74-5.07,2.07-2.21,3.66.32,5.18a21.86,21.86,0,0,1,8.37,9.2c2.16,4.33.79,6.67-4,6.79-4,.11-8,0-12.06,0C267,760.85,262.67,758.52,258.25,758.15Z"/><path class="cls-4" d="M271.54,758.8c4,0,8,.11,12.06,0,4.77-.12,6.14-2.46,4-6.79a21.86,21.86,0,0,0-8.37-9.2c-2.53-1.52-5.39-3.11-.32-5.18,1.64-.67,1.49-2.45,1.9-3.74,15.73-50.13,25.93-101.14,24.23-154-.12-3.85.55-5.92,4.92-5.23a20.26,20.26,0,0,0,4.36-.3c8.6-.59,8.64-.59,10.41,7.66,8.76,40.68,10.77,81.77,7.18,123.17-.78,8.92-1.78,17.82-2.39,26.75-.17,2.46-1.54,5.08,1.15,7.66,1,1-.11,4.3-1.62,6.43-2.13,3-3.52,6.44-1.74,10.25C308.8,759.15,290.25,760.72,271.54,758.8Z"/><path class="cls-5" d="M435,817.42c3.57-4.63,7.69-6,12.91-3.56a32.14,32.14,0,0,0,.22-3.61C448,808,449.45,808.13,451,808c2.21-.24,2.3,1.1,2.29,2.7,0,6.2,0,12.4,0,18.61,0,1,.11,3-1,2.65-4.53-1.25-9.2,2.53-13.48-.35-3.77-2.54-4.06-6.57-4-10.74,0-1.32,2.07-3.62-.67-4-2.38-.29-5.15,0-6.24,3.15s-.45,6.15-.54,9.22c-.06,1.85-.14,3.07-2.58,3s-2-1.53-2-2.92c0-4.56,0-9.12,0-13.69,0-.83.13-2,.67-2.43,2.16-1.61,3.84,2.51,6.57.44C433.24,811.19,433.84,814.88,435,817.42Zm13.49,5.36c-.45-3-.55-6.41-4.67-6.18s-4.22,3.57-4.15,6.46.63,5.76,4.34,5.78C448.18,828.87,448,825.46,448.48,822.78Z"/><path class="cls-5" d="M469.89,794.27c0,5.67-5.81,12.81-10.55,14.2l-1,.27c-1.07-6.45-7.42-2.71-10.73-5.58-5.39-4.68-5.85-10.91,0-15,4.86-3.35,13.21-3.3,18,.13C468.2,790.09,469.77,792.41,469.89,794.27Zm-18.25,3.49c3.13,2.08,7.06,3.15,9.17-.25,1.13-1.82-1.31-6.33-3.81-6.55C453,790.63,452.76,795.07,451.64,797.76Z"/><path class="cls-5" d="M224.21,818.12c0-2.19,0-4.38,0-6.57,0-1.86-.3-3.65,2.6-3.6s2.12,1.94,2.14,3.41c.06,4.38-.07,8.77.05,13.14.06,1.94,0,4.13,2.92,4.41,2.26.21,4.08,1,3.28-2.88-1-4.92-1-10,4.74-12.61a9.41,9.41,0,0,1,11.67,3.07c2.46,3.75,2,11-1.17,13.78-3.74,3.23-8,3.26-12.11.74-1.84-1.12-3.22-4.08-4.69.56-.57,1.8-3.64.82-5.53.61-2.34-.27-3.47-2.18-3.63-4.22-.27-3.26-.07-6.56-.07-9.84Zm24.19,4.29c-.22-3.08-.77-6.12-4.74-5.86s-4.25,3.43-4.22,6.41.89,6.07,4.76,5.87S248.15,825.32,248.4,822.41Z"/><path class="cls-5" d="M361.52,820c-.92,3.14-1.83,6.28-2.77,9.41-.48,1.6-1,3-3.25,2.85-2.06-.11-2.74-.89-3.25-2.79-1.16-4.39-2.74-8.68-3.95-13.07-.3-1.1-1.7-3,.9-3.41,1.73-.27,3.14,0,3.6,2.23.59,3,1.58,5.9,2.59,9.54,2.45-3.06,2.6-6.34,3.49-9.26.61-2,1.62-2.53,3.51-2.59s2.5,1.19,2.92,2.63c.86,2.94,1.65,5.9,2.91,10.45,1.27-4.41,2.23-7.24,2.87-10.13.49-2.21,1.63-3.28,3.81-2.83,3.13.64,1,2.54.64,3.77-1.15,4.22-2.49,8.38-3.8,12.56-.49,1.54-.89,2.89-3.18,2.92-2.54,0-3-1.34-3.47-3.2-.77-3-1.67-5.89-2.51-8.83Z"/><path class="cls-5" d="M340.75,831.74c-10.17,1.36-15.42-3.5-13.32-12.31,1.24-5.15,5.82-7.84,10.84-6.34a10.62,10.62,0,0,1,1.5.68c2,.93,4.55-2.38,5.47-.28,1.09,2.48.54,5.7.6,8.6s.08,5.85,0,8.77c-.2,7.29-4.08,10.64-11.28,10-1.63-.16-2.85-.31-2.83-2.38s1.54-1.53,2.7-1.68C340,836.07,340,836.07,340.75,831.74Zm.66-9.41c-.57-2.69-.87-5.94-4.86-5.81-3.78.12-4.76,3.19-4.66,6.17s1.06,6.14,4.84,6.1S340.94,825.49,341.41,822.33Z"/><path class="cls-5" d="M268.77,831.11c-4.08,1.53-8.11,2.08-11.25-1.6-3-3.53-3.26-7.68-1.48-11.78s5-5.72,9.29-4.92c1.86.35,3.37,1.38,5.52.37,1.95-.92,2.8.55,2.77,2.62-.1,5.82.14,11.66-.15,17.47-.26,5.35-7.09,9.33-12.2,7.5a2.06,2.06,0,0,1-1.49-2.49c.25-1.82,1.76-1.38,3-1.52C268.23,836.11,268.23,836.09,268.77,831.11Zm.29-7.61c0-3.79-.33-6.84-4.31-6.93s-4.69,2.69-4.69,5.92.74,6.14,4.42,6.3C268.32,829,269.07,826,269.06,823.5Z"/><path class="cls-5" d="M289.78,830.9c-4.18,1.81-8,2.26-11.17-1.15s-3.49-7.59-1.79-11.76,5.11-6,9.68-5.14c.52.1,1.07.7,1.5.59,8.45-2.05,6.33,4.06,6.43,8.34.08,3.83.19,7.68-.07,11.5-.35,5.33-7.37,9.43-12.3,7.48a2.11,2.11,0,0,1-1.39-2.07c-.13-1.86,1.18-1.93,2.55-1.92C287,836.79,290.21,836.24,289.78,830.9Zm.13-7.88c0-3.6-.47-6.5-4.5-6.42s-4.5,3-4.48,6.11.9,6.13,4.64,6.08S290,825.74,289.91,823Z"/><path class="cls-5" d="M207.91,814c4-1.38,8-2.67,11.1,1.25,2.83,3.62,2.85,7.91,1.48,12-1.46,4.42-4.74,6.29-9.44,5-.69-.18-1.46-.94-2-.78-8.68,2.67-5.81-3.87-6-7.66-.23-4-.1-8,0-12.06,0-1.62-.81-3.69,2.29-3.85,3.27-.16,2.24,2,2.42,3.62C207.81,812.25,207.84,813,207.91,814Zm7.06,7.69c1.44-3.45,0-5-2.47-5.21-3.48-.23-4.65,2.38-4.72,5.34s0,7,4.11,6.94C217.76,828.7,215.82,824.35,215,821.67Z"/><path class="cls-5" d="M402.05,829c.52-5.7,3.66-8.53,9.37-8.67,1.13,0,2.79.28,2.55-1.8-.22-1.91-1.71-2-3.18-2.3-2.12-.47-6.05,2.87-6-1.25,0-2.76,4.53-2.39,7.29-2.35,4.32.06,6.77,2.22,6.77,6.74a25.46,25.46,0,0,1,0,3.27c-.4,3.12,1.49,6.87-1,9.26-2.23,2.12-13.28-.43-15.83-3Zm8.86-5.37c-.87.32-3.18.31-3.51,2.91-.25,1.94,1.08,2.54,2.72,2.49,2.27-.06,3.78-1,4-3.53C414.24,823.86,413.56,823.16,410.91,823.65Z"/><path class="cls-5" d="M307.28,822.71c0-1.64-.07-3.28,0-4.92.14-2.68-1-7,4.31-3.6.49.3,1.63-.39,2.45-.65,7.07-2.25,10.26.07,10.39,7.63.05,2.91,0,5.83,0,8.74,0,1.56-.53,2.28-2.2,2.32-1.84,0-2.63-.56-2.57-2.49.11-2.91.1-5.83,0-8.74-.08-2.23-.3-4.68-3.4-4.52a4.28,4.28,0,0,0-4.42,4.57c-.07,2.73,0,5.47,0,8.2,0,1.4.38,2.9-2,3s-2.68-1.08-2.6-3C307.35,827.08,307.28,824.89,307.28,822.71Z"/><path class="cls-5" d="M402,829c-2.31,5.32-7,2.77-10.77,3.15-1.64.17-4,1.08-5-.78s.85-3.35,1.87-4.82c2.07-3,4.17-5.9,7-9.88-2.73,0-4.6,0-6.47,0-1.28,0-2.08-.35-2.1-1.81s.79-1.91,2.05-1.83c4,.23,9.45-1.81,11.5.8,2.61,3.33-2.67,6.35-4.33,9.61a62.06,62.06,0,0,1-3.79,5.6h10.12Z"/><path class="cls-5" d="M378.63,822.28c0-2.35,0-4.7,0-7,0-1.61.65-2.23,2.26-2.23s2.32.46,2.31,2.13c-.05,4.88-.08,9.77,0,14.65,0,1.9-.67,2.5-2.52,2.45s-2.11-.87-2.08-2.35C378.66,827.35,378.62,824.82,378.63,822.28Z"/><path class="cls-5" d="M303.05,822.84c0,2.36,0,4.71,0,7.06,0,1.47-.32,2.3-2.07,2.33s-2.56-.59-2.52-2.48c.09-4.7.06-9.4,0-14.1,0-1.71.4-2.65,2.4-2.67,2.21,0,2.19,1.28,2.17,2.81C303,818.14,303.05,820.49,303.05,822.84Z"/><path class="cls-5" d="M383.33,808.39c.22,2.18-1.16,2-2.46,2.05-1.59.1-2.33-.37-2.28-2.12s1.12-1.94,2.53-2C382.7,806.34,383.57,806.86,383.33,808.39Z"/><path class="cls-5" d="M548.43,378.13c-1.17.94-2.11,2.27-3,2.26s-1.62-1.51-2.42-2.36c.87-.82,1.76-2.3,2.62-2.28S547.41,377.2,548.43,378.13Z"/><path class="cls-6" d="M94.93,624.58a2.57,2.57,0,1,1,.35-5.13,1.91,1.91,0,0,1,2,2C97.27,623,96.69,624.32,94.93,624.58Z"/><path class="cls-7" d="M467.22,866.35c-1.49-1.32-3.09-2.16-3-2.85a3.68,3.68,0,0,1,2.24-2.61c1.3-.35,2.23,1.25,2.53,2.26C469.36,864.55,467,864.28,467.22,866.35Z"/><path class="cls-5" d="M303.06,808.31c0,2.76-1.94,1.73-3.16,1.89-1.39.19-2.47,0-2.35-1.94.15-2.35,1.81-1.78,3.17-1.87C302.25,806.28,303.21,806.79,303.06,808.31Z"/><path class="cls-7" d="M570.15,341.33c1,1.1,2.45,2,2.44,2.87a3.32,3.32,0,0,1-2.43,2.28,3.43,3.43,0,0,1-2.46-2.34C567.68,343.27,569.18,342.36,570.15,341.33Z"/><path class="cls-7" d="M399.12,87.34c-1.06.72-1.91,1.72-2.84,1.79-.65.05-2.09-1.36-2-1.78.27-1,.93-2.52,2.14-2.33C397.38,85.16,398.13,86.42,399.12,87.34Z"/><path class="cls-7" d="M104.79,101.19c-1,.87-1.85,2.12-2.7,2.13s-1.58-1.31-2.37-2c.78-.78,1.55-2.13,2.35-2.16S103.78,100.36,104.79,101.19Z"/><path class="cls-8" d="M263.49,72.46l-2.67,2.07c-.64-.86-2.24-1.26-2-2.47.23-1,1.15-2.26,2.33-2.08A3.38,3.38,0,0,1,263.49,72.46Z"/><path class="cls-5" d="M80.69,736.79c.92,1,2.31,1.75,2.47,2.73.23,1.47-1.58,2.14-2.47,3.19-.8-1-2.21-1.9-2.23-2.87S79.82,737.9,80.69,736.79Z"/><path class="cls-8" d="M578.92,853.69c1,1.15,2.36,2,2.36,2.94s-1.46,2.49-2.17,2.43a3.49,3.49,0,0,1-2.55-2.27C576.5,855.91,577.92,854.92,578.92,853.69Z"/><path class="cls-3" d="M278.53,49.76a10.13,10.13,0,0,1-2.71,1.71c-1.4.38-2.12-1-2.36-2-.31-1.2.8-2.18,1.91-2.38C276.68,46.88,277.2,48.22,278.53,49.76Z"/><path class="cls-5" d="M96,414.08c-.34-.56-1.49-1.62-1.47-2.67a3.45,3.45,0,0,1,2.17-2.49c1.52-.38,2,1.62,3.14,2.29Z"/><path class="cls-8" d="M189.83,800.26c1.5.39,2.82,1.23,2.77,2.3s-1.35,2.49-2.17,2.54a2.61,2.61,0,0,1-2.33-2.45C188.12,801.82,189.24,801,189.83,800.26Z"/><path class="cls-5" d="M342.23,565.62c-2.37,0-4.75-.06-7.11.09-9.81.62-11.66-.38-16.17-9.3-2,8.16-7.52,11-15.06,11.35-6.55.3-13.09,1-19.63,1.46-4.06-.26-5-2.37-4.56-6.27.8-6.5,1-13.06,1.55-20.6-8.73,4.6-16.85,8.86-24.95,13.15-9.49,5-15.87,2.5-19.22-7.74-1-3.08-2.75-6-2-9.51,1,2.85,2,5.25,6.09,4.25,19.79-4.83,39.64-9.4,59.46-14.12.91-.21,2.45.13,2.48-1.45,0-1.26-1.14-1.77-2.15-2.17-1.56-.63-2.69-1.62-4.92-.58-7.33,3.43-15,.5-22.21-.65-6.66-1.08-13.2-3.16-20.08-3.17-1.3-2-3.55-1.55-5.37-2-12.69-2.87-19-14.48-13.67-26.29,7.56-16.74,15.57-33.28,23.35-49.92A12.68,12.68,0,0,1,264,436a54.12,54.12,0,0,1,21.82-6.3c-.23,6.47,2.51,12.15,5.86,17.2,6.74,10.15,13.15,20.43,18.3,31.48.43.92,1.14,2.13,2.25.45,5.12-2.56,6.74-5.58,4.77-11.91-2.43-7.82-5-15.85-5.27-24.31-.11-2.86-1.68-5.94-4.93-8.75-.3,3.58-1.5,6.64-.58,8.8,3.34,7.77,2.81,15.95,3.54,24-.71-1.85-1.49-3.68-2.13-5.55-3.88-11.38-8.41-22.43-15.58-32.22.22-2.14.44-4.28.72-7a49.1,49.1,0,0,0,19.74,6.31c3.67,14.11,7.35,28.22,4.61,43-.18,1,.16,2,1.14,2a2.44,2.44,0,0,0,2.52-2.42,52.15,52.15,0,0,1,1.76-12.37,36.79,36.79,0,0,0-5.08-30.17c6.54-.5,12.68,1.36,18.69,3.5a9.44,9.44,0,0,1,6.71,8.53c.24,2.73.71,5.43,1.06,8.15s1.46,3.43,3.86,1.58c4.93-3.78,10-7.34,14.92-11.17,3.86-3,7.76-3,11.65-.46,4.54,3,7.3,7.15,7.16,12.76a4.53,4.53,0,0,1-2.16,3.67c-5.18,3.28-7.57,9.41-12.87,12.55l-1.65.95c.77.71,1.6.45,2.43.14,4-2.06,8-4.23,12.16-6.15,5.56-2.6,11.18.07,14.53,6.71,3.1,6.13,1.95,10.58-3.93,13.51-3.41,1.7-4.89,5.24-7.86,7.28-3.17,1.86-6.79,2.24-10.26,3.08-17.12,4.17-34.26,8.26-51.39,12.38l-11.59,2.86c-3.51.37-7,.67-10.44,2.94,4.82,3,9.66,1.62,14.21,1.49,5.12-.15,8.16,1.65,8.61,6.7.35,3.81,2.27,3.71,5.16,3.14,4-.8,7.77-3.16,12.08-1.79-.79,2.16-.32,4.32.08,6.46,2,10.55,4.07,21.08,6,31.62C345.12,561.42,345.85,564.31,342.23,565.62Zm-75-97.79c-4.93,10.48-9.18,19.75-13.64,28.92-1.23,2.53-.08,3.21,2,3.59q9.69,1.77,19.4,3.48c2.65.46,4.68-1.09,6.27-2.73,1.75-1.81-.64-3.25-1.29-4.76C276,487.12,270.8,478.49,267.27,467.83Z"/><path class="cls-8" d="M354.39,657.58c-1.17-13.26-1.14-26.6-2.95-39.8-1.14-8.31-2.19-16.63-3.27-24.95L359.25,591l37.14-5c5.6-.7,11.25-1.19,16.8-2.18,3.21-.57,4.47.74,4.85,3.49,2.59,18.42,5.12,36.84,7.73,55.26.49,3.45-.74,4.89-4.27,5.37-20.6,2.78-41.17,5.75-61.74,8.68C358,656.83,356.18,657.24,354.39,657.58Z"/><path class="cls-8" d="M276,384.15c-6.3-12.83-2.86-29.7,7.93-38.94,5.43-4.65,11.19-4.76,18.7-.26a41.53,41.53,0,0,1,9.51,7.35c.88.95,2.13,1.86,3.33.76s.06-2.49-.66-3.34a58.39,58.39,0,0,0-6.44-6.71,90.92,90.92,0,0,0-7.61-5.27c4.14-2.64,9.87-2,14.82,1.59a28.68,28.68,0,0,1,8.72,10.39c.63,1.24,1.67,2.92,3.32,2,1.39-.76.36-2.31-.12-3.45-1-2.32-2-4.61-3-6.87a.84.84,0,0,1,1.4-.27c4.85,8.14,13.82,13.44,15.91,23.54.66,3.21.21,4.8-3.19,4.13-11.3-2.23-22.06.39-32.84,3.26-4.92,1.31-10,2.15-15,3.2l-6.41,4.6-4.87,3.33Z"/><path class="cls-5" d="M396.39,586l-37.14,5c.23-1.19-.44-3.07,1.06-3.37,6.09-1.24,3.11-4.74,2.56-8.14-1.19-7.42-4.08-13.7-7.89-20.34-6.91-12-11.76-25.3-16.36-38.51,5.69-3.52,12.42-3.44,18.57-5.34,4,11.88,9.39,23.16,14.21,34.7,1.05,2.5,2.09,4.83,1.63,7.75-.54,3.44.52,6.13,4,8.14a11.57,11.57,0,0,1,6.14,9.12c-1.72,0-3.22-.25-2.27,2.53,2.44,7.16,2.55,7.31,11.42,5.2C394.91,582.26,396.1,583.54,396.39,586Z"/><path class="cls-3" d="M357.19,515.28c-6.15,1.9-12.88,1.82-18.57,5.34l-.12,0c-4.31-1.37-8.09,1-12.08,1.79-2.89.57-4.81.67-5.16-3.14-.45-5-3.49-6.85-8.61-6.7-4.55.13-9.39,1.48-14.21-1.49,3.41-2.27,6.93-2.57,10.44-2.94,2.65,5.15,6,.05,9,.48,1.81.25,3.52-.82,2.63-3.34,17.13-4.12,34.27-8.21,51.39-12.38,3.47-.84,7.09-1.22,10.26-3.08a32.07,32.07,0,0,0,10.16-1.74c3.29-.95,4.54.24,5.45,3.31,3.87,13.2,3.95,13.18-9.22,16.34ZM356.64,502c-.94.62-3.31.43-2.77,3.12.43,2.13,0,5.2,3.5,4.9,1.45-.13,4-.24,3.47-3C360.43,504.83,360.62,502.05,356.64,502Z"/><path class="cls-5" d="M279.5,383.2l4.87-3.33c6.62,4.66,6.6,4.66,9.72-2a15.82,15.82,0,0,1,1.51-2.19h43.51c.8,3.83,1.45,7.38-4.67,5.28-1.66-.57-3.81-.86-5.38,1.5,3.87,1.77,8.24-1,11.46,2,2.78,3.2,3.59,6.61,1.07,10.36-.68.59-1.79,1.07-2,1.8-1.14,4.17-2.9,3.42-6.36,2-11.86-4.86-23.36-3-34.61,3.31a13.11,13.11,0,0,1-.91-1.37c-2.21-4.08-3-8.58-3.84-13.06-.28-1.52-.81-2.86-2.81-2.55a1.46,1.46,0,0,0-1.38,1.92c2.31,7.65.07,15.69,2.05,23.35-4.78-3.37-7.9-8.29-11.65-12.62C279.73,392.82,278,388.08,279.5,383.2ZM309.6,390a2.32,2.32,0,0,0-2.24-2.31c-2-.07-2.21,1.44-2.21,3s.42,2.6,2.06,2.58C309.1,393.22,309.53,391.85,309.6,390Zm1-7.92c-3.34-1.75-6.5-1.67-9.35,1.24A82,82,0,0,1,310.59,382.07Zm22.27,5.55a2.63,2.63,0,0,0-2.27,3.2c.14,1.4.78,2.49,2.34,2.42,2-.08,2.1-1.6,2-3.12S334.37,387.7,332.86,387.62Z"/><path class="cls-3" d="M291.74,410.24c-2-7.66.26-15.7-2.05-23.35a1.46,1.46,0,0,1,1.38-1.92c2-.31,2.53,1,2.81,2.55.84,4.48,1.63,9,3.84,13.06a13.11,13.11,0,0,0,.91,1.37c11.25-6.33,22.75-8.17,34.61-3.31,3.46,1.42,5.22,2.17,6.36-2,.2-.73,1.31-1.21,2-1.8,1,7.65-1.28,14.4-5.84,20.4-6.35,8.36-15.83,11.21-27.07,7.95C301.46,421.1,294.18,418.76,291.74,410.24Zm42.91-4.44c-6.66,2-11.27-4.23-16.14-2.1-5.1,2.22-10.36,2.12-15.84,3.09C311.4,415.89,326.8,415.78,334.65,405.8Z"/><path class="cls-3" d="M253.73,520.36c6.88,0,13.42,2.09,20.08,3.17,7.17,1.15,14.88,4.08,22.21.65,2.23-1,3.36,0,4.92.58,1,.4,2.17.91,2.15,2.17,0,1.58-1.57,1.24-2.48,1.45-19.82,4.72-39.67,9.29-59.46,14.12-4.12,1-5.07-1.4-6.09-4.25-.05-.73,0-1.47-.15-2.18-1.81-10.36-1.8-10.33,8.32-12.82C246.75,522.38,250.23,521.33,253.73,520.36Z"/><path class="cls-3" d="M312.19,478.87c-1.11,1.68-1.82.47-2.25-.45-5.15-11.05-11.56-21.33-18.3-31.48-3.35-5.05-6.09-10.73-5.86-17.2l6.23-.81c7.17,9.79,11.7,20.84,15.58,32.22.64,1.87,1.42,3.7,2.13,5.55Q311,472.78,312.19,478.87Z"/><path class="cls-3" d="M317.42,428.31a36.79,36.79,0,0,1,5.08,30.17,52.15,52.15,0,0,0-1.76,12.37,2.44,2.44,0,0,1-2.52,2.42c-1,0-1.32-1-1.14-2,2.74-14.8-.94-28.91-4.61-43Z"/><path class="cls-3" d="M392.33,582.72c-8.87,2.11-9,2-11.42-5.2-1-2.78.55-2.56,2.27-2.53C386.58,577.15,390.39,578.82,392.33,582.72Z"/><path class="cls-3" d="M295.6,375.67a15.82,15.82,0,0,0-1.51,2.19c-3.12,6.67-3.1,6.67-9.72,2l6.41-4.6C292.41,375.1,294.05,374.81,295.6,375.67Z"/><path class="cls-3" d="M279.5,383.2c-1.54,4.88.23,9.62.59,14.42-3.27-3.91-6.08-8-4.13-13.47Z"/><path class="cls-3" d="M340.52,384.48c-3.22-3.05-7.59-.25-11.46-2,1.57-2.36,3.72-2.07,5.38-1.5,6.12,2.1,5.47-1.45,4.67-5.28C343.33,378,341.59,381.3,340.52,384.48Z"/><path class="cls-9" d="M115.49,127.87l-.2.41c.06-.14.11-.29.16-.44Z"/><path class="cls-10" d="M338.5,520.66l.12,0c4.6,13.21,9.45,26.48,16.36,38.51,3.81,6.64,6.7,12.92,7.89,20.34.55,3.4,3.53,6.9-2.56,8.14-1.5.3-.83,2.18-1.06,3.37l-11.08,1.85-5.94-27.21c3.62-1.31,2.89-4.2,2.39-6.88-2-10.54-4-21.07-6-31.62C338.18,525,337.71,522.82,338.5,520.66Z"/><path class="cls-9" d="M101.68,221.15c-3.79,3.74-8.4,4.93-13.12,2.72-4.19-2-4.6-6.38-3.92-10.39.81-4.64,3.7-7.65,8.76-8Z"/><path class="cls-6" d="M537.39,150.69A6,6,0,0,1,536,155c-1,1.13-2.21,2.32-3.84,1.69-1.34-.53-.66-2-.75-3.08a9.9,9.9,0,0,1,0-3.48c.49-1.64-1.6-4.7,1.44-4.76C535.73,145.31,537.72,147.48,537.39,150.69Z"/><path class="cls-9" d="M448.48,822.78c-.46,2.68-.3,6.09-4.48,6.06-3.71,0-4.28-3-4.34-5.78s.16-6.24,4.15-6.46S448,819.74,448.48,822.78Z"/><path class="cls-6" d="M451.64,797.76c1.12-2.69,1.4-7.13,5.36-6.8,2.5.22,4.94,4.73,3.81,6.55C458.7,800.91,454.77,799.84,451.64,797.76Z"/><path class="cls-9" d="M248.4,822.41c-.25,2.91-.23,6.21-4.2,6.42s-4.73-2.78-4.76-5.87.37-6.16,4.22-6.41S248.18,819.33,248.4,822.41Z"/><path class="cls-9" d="M341.41,822.33c-.47,3.16-.82,6.42-4.68,6.46s-4.74-3.18-4.84-6.1.88-6.05,4.66-6.17C340.54,816.39,340.84,819.64,341.41,822.33Z"/><path class="cls-9" d="M269.06,823.5c0,2.49-.74,5.45-4.58,5.29-3.68-.16-4.42-3.15-4.42-6.3s.82-6,4.69-5.92S269.06,819.71,269.06,823.5Z"/><path class="cls-9" d="M289.91,823c.1,2.72-.54,5.72-4.34,5.77s-4.62-2.92-4.64-6.08.54-6,4.48-6.11S289.93,819.42,289.91,823Z"/><path class="cls-9" d="M215,821.67c.85,2.68,2.79,7-3.08,7.07-4.11,0-4.18-3.85-4.11-6.94s1.24-5.57,4.72-5.34C215,816.63,216.41,818.22,215,821.67Z"/><path class="cls-9" d="M410.91,823.65c2.65-.49,3.33.21,3.19,1.87-.2,2.48-1.71,3.47-4,3.53-1.64.05-3-.55-2.72-2.49C407.73,824,410,824,410.91,823.65Z"/><path class="cls-11" d="M267.27,467.83c3.53,10.66,8.74,19.29,12.71,28.5.65,1.51,3,2.95,1.29,4.76-1.59,1.64-3.62,3.19-6.27,2.73q-9.71-1.71-19.4-3.48c-2-.38-3.2-1.06-2-3.59C258.09,487.58,262.34,478.31,267.27,467.83Z"/><path class="cls-8" d="M312.19,478.87q-1.23-6.09-2.47-12.17c-.73-8.05-.2-16.23-3.54-24-.92-2.16.28-5.22.58-8.8,3.25,2.81,4.82,5.89,4.93,8.75.31,8.46,2.84,16.49,5.27,24.31C318.93,473.29,317.31,476.31,312.19,478.87Z"/><path class="cls-7" d="M320.47,505.32c.89,2.52-.82,3.59-2.63,3.34-3-.43-6.31,4.67-9-.48Z"/><path class="cls-7" d="M367.22,468.51c-.83.31-1.66.57-2.43-.14l1.65-.95Z"/><path class="cls-7" d="M356.64,502c4,.08,3.79,2.86,4.2,5,.53,2.75-2,2.86-3.47,3-3.46.3-3.07-2.77-3.5-4.9C353.33,502.4,355.7,502.59,356.64,502Z"/><path class="cls-6" d="M309.6,390c-.07,1.86-.5,3.23-2.39,3.25-1.64,0-2.06-1.16-2.06-2.58s.21-3.05,2.21-3A2.32,2.32,0,0,1,309.6,390Z"/><path class="cls-3" d="M310.59,382.07a82,82,0,0,0-9.35,1.24C304.09,380.4,307.25,380.32,310.59,382.07Z"/><path class="cls-6" d="M332.86,387.62c1.51.08,2.06,1.08,2.11,2.5s0,3-2,3.12c-1.56.07-2.2-1-2.34-2.42A2.63,2.63,0,0,1,332.86,387.62Z"/><path class="cls-5" d="M334.65,405.8c-7.85,10-23.25,10.09-32,1,5.48-1,10.74-.87,15.84-3.09C323.38,401.57,328,407.82,334.65,405.8Z"/><text class="cls-12" transform="translate(80.41 163.79) scale(0.5 1)">Show Your Product<tspan x="0" y="108.69">to the world</tspan></text><rect class="cls-1" x="152.01" y="770.4" width="342.72" height="73.73"/></svg>